# xmcd CD database file
#
# Track frame offsets:
#	151
#	27585
#	47593
#	76835
#	100953
#	121124
#	139385
#	159212
#	178687
#	204645
#	235641
#	244428
#
# Disc length: 3564 seconds
#
# Revision: 0
# Processed by: cddbd v1.5PL3 Copyright (c) Steve Scherf et al.
# Submitted via: CDex 1.51
#
DISCID=9b0dea0c
DTITLE=Kozmic Blue - Diamonds and Glass
DYEAR=1999
DGENRE=Blues
TTITLE0=Sad Eyes Said I
TTITLE1=I`ll Keep Trying
TTITLE2=Bad For Your School
TTITLE3=When Charlie Smiled
TTITLE4=Sorry
TTITLE5=Free With You
TTITLE6=Breakfast `lone In Bed
TTITLE7=Slim Slow Slider
TTITLE8=Follow Your Heart
TTITLE9=Diamonds And Glass
TTITLE10=Mercedes Benz
TTITLE11=Thank You
EXTD=YEAR: 1999
EXTT0=
EXTT1=
EXTT2=
EXTT3=
EXTT4=
EXTT5=
EXTT6=
EXTT7=
EXTT8=
EXTT9=
EXTT10=
EXTT11=
PLAYORDER=
